<svg xmlns="http://www.w3.org/2000/svg" width="140" height="420" viewBox="0 0 140 420">
  <path d="M59 12 H81 V108 C81 126 107 132 107 160 V390 A12 12 0 0 1 95 402 H45 A12 12 0 0 1 33 390 V160 C33 132 59 126 59 108 Z" fill="#26121a"/>
  <path d="M42 175 V385" stroke="#41222d" stroke-width="5" stroke-linecap="round" fill="none"/>
  <rect x="55" y="6" width="30" height="56" rx="7" fill="#e07b2a"/>
  <rect x="55" y="50" width="30" height="4" fill="#c05f16"/>
  <rect x="38" y="180" width="64" height="118" rx="4" fill="#f6efe2"/>
  <rect x="46" y="192" width="40" height="4" fill="#8f8574"/>
  <rect x="46" y="200" width="28" height="3" fill="#b7ad9e"/>
  <path d="M55 236 c10 -12 26 -6 24 6 s-16 16 -24 8 -2 -20 10 -22" fill="none" stroke="#e79ec1" stroke-width="7" stroke-linecap="round"/>
  <rect x="46" y="272" width="44" height="3" fill="#b7ad9e"/>
  <rect x="46" y="279" width="30" height="3" fill="#b7ad9e"/>
</svg>
